<?xml version="1.0" encoding="iso-8859-1"?>
<!-- Generator: Adobe Illustrator 19.0.0, SVG Export Plug-In . SVG Version: 6.00 Build 0)  -->
<svg version="1.1" id="Layer_1" xmlns="http://www.w3.org/2000/svg" xmlns:xlink="http://www.w3.org/1999/xlink" x="0px" y="0px"
	 viewBox="0 0 512 512" style="enable-background:new 0 0 512 512;" xml:space="preserve">
<path style="fill:#F59D00;" d="M385.545,204.085h-19.98c-9.22,0-16.696-7.475-16.696-16.696s7.475-16.696,16.696-16.696h19.98
	c24.584,0,45.46-16.171,52.55-38.437H397.23c-9.22,0-16.696-7.475-16.696-16.696s7.475-16.696,16.696-16.696h60.144
	c9.22,0,16.696,7.475,16.696,16.696C474.07,164.374,434.357,204.085,385.545,204.085z"/>
<path style="fill:#F8B64C;" d="M256,346.4c-9.22,0-16.696-7.475-16.696-16.696v-90.948c0-9.22,7.475-16.696,16.696-16.696
	c9.22,0,16.696,7.475,16.696,16.696v90.948C272.696,338.925,265.22,346.4,256,346.4z"/>
<path style="fill:#F59D00;" d="M256,222.061V346.4c9.22,0,16.696-7.475,16.696-16.696v-90.948
	C272.696,229.536,265.22,222.061,256,222.061z"/>
<g>
	<path style="fill:#F8B64C;" d="M146.435,204.085h-19.98c-48.813,0-88.525-39.712-88.525-88.524c0-9.22,7.475-16.696,16.696-16.696
		h60.144c9.22,0,16.696,7.475,16.696,16.696s-7.475,16.696-16.696,16.696H73.905c7.09,22.265,27.966,38.437,52.55,38.437h19.98
		c9.22,0,16.696,7.475,16.696,16.696S155.656,204.085,146.435,204.085z"/>
	<path style="fill:#F8B64C;" d="M327.964,88.033H184.036c-9.22,0-16.696-7.475-16.696-16.696V16.696
		C167.34,7.475,174.816,0,184.036,0h143.928c9.22,0,16.696,7.475,16.696,16.696v54.642
		C344.659,80.558,337.184,88.033,327.964,88.033z"/>
</g>
<path style="fill:#F59D00;" d="M327.964,0H256v88.033h71.964c9.22,0,16.696-7.475,16.696-16.696V16.696
	C344.659,7.475,337.184,0,327.964,0z"/>
<path style="fill:#FFD15C;" d="M321.151,429.2H190.849c-10.79,0-18.748-10.1-16.236-20.585l19.834-82.8
	c1.799-7.51,8.514-12.807,16.236-12.807h90.632c7.722,0,14.437,5.297,16.236,12.807l19.834,82.8
	C339.9,419.11,331.932,429.2,321.151,429.2z"/>
<g>
	<path style="fill:#F8B64C;" d="M337.387,408.615l-19.834-82.8c-1.799-7.51-8.514-12.807-16.236-12.807H256V429.2h65.151
		C331.932,429.2,339.9,419.11,337.387,408.615z"/>
	<path style="fill:#F8B64C;" d="M370.405,512H141.595c-9.22,0-16.696-7.475-16.696-16.696v-82.8c0-9.22,7.475-16.696,16.696-16.696
		h228.811c9.22,0,16.696,7.475,16.696,16.696v82.8C387.101,504.525,379.626,512,370.405,512z"/>
</g>
<path style="fill:#FFD15C;" d="M256,255.452c-87.804,0-159.236-71.434-159.236-159.236V71.337c0-9.22,7.475-16.696,16.696-16.696
	h285.083c9.22,0,16.696,7.475,16.696,16.696v24.879C415.236,184.018,343.803,255.452,256,255.452z"/>
<path style="fill:#F8B64C;" d="M398.541,54.642H256v200.811c87.804,0,159.236-71.434,159.236-159.236V71.337
	C415.236,62.117,407.762,54.642,398.541,54.642z"/>
<path style="fill:#FF7058;" d="M256,199.936c-24.752,0-44.889-20.137-44.889-44.889s20.137-44.889,44.889-44.889
	s44.889,20.137,44.889,44.889S280.752,199.936,256,199.936z"/>
<path style="fill:#F59D00;" d="M370.405,395.808H256V512h114.405c9.22,0,16.696-7.475,16.696-16.696v-82.8
	C387.101,403.283,379.626,395.808,370.405,395.808z"/>
<path style="fill:#F1543F;" d="M256,110.158v89.778c24.752,0,44.889-20.137,44.889-44.889S280.752,110.158,256,110.158z"/>
<g>
</g>
<g>
</g>
<g>
</g>
<g>
</g>
<g>
</g>
<g>
</g>
<g>
</g>
<g>
</g>
<g>
</g>
<g>
</g>
<g>
</g>
<g>
</g>
<g>
</g>
<g>
</g>
<g>
</g>
</svg>
